<?xml version="1.0" standalone="no"?>
<!DOCTYPE svg PUBLIC "-//W3C//DTD SVG 20010904//EN"
 "http://www.w3.org/TR/2001/REC-SVG-20010904/DTD/svg10.dtd">
<svg version="1.0" xmlns="http://www.w3.org/2000/svg"
 width="400.000000pt" height="400.000000pt" viewBox="0 0 400.000000 400.000000"
 preserveAspectRatio="xMidYMid meet">
<metadata>
Created by potrace 1.11, written by Peter Selinger 2001-2013
</metadata>
<g transform="translate(0.000000,400.000000) scale(0.100000,-0.100000)"
fill="#000000" stroke="none">
<path d="M3101 3498 c-24 -68 -59 -171 -79 -230 l-36 -108 -254 -2 -255 -3
122 -85 c67 -47 152 -106 189 -132 37 -26 74 -53 84 -59 15 -11 15 -16 1 -53
-19 -53 -143 -417 -143 -421 0 -2 42 25 93 60 75 51 97 62 107 52 10 -10 12
-9 7 5 -6 16 44 64 74 70 8 2 17 8 21 13 4 6 13 10 20 10 7 1 12 7 10 14 -1 7
2 10 7 7 5 -3 12 1 15 10 4 10 13 13 27 9 13 -5 19 -3 15 3 -3 5 0 15 8 21 10
9 16 8 26 -4 7 -8 27 -22 45 -31 18 -8 42 -24 53 -34 12 -11 24 -20 27 -20 3
0 66 -42 140 -94 119 -83 166 -108 135 -70 -6 6 -10 16 -8 20 1 5 -4 20 -11
33 -8 14 -9 21 -2 17 6 -4 11 -3 11 2 0 6 -6 12 -14 15 -8 3 -13 14 -12 24 2
10 -3 27 -11 39 -7 11 -10 24 -6 27 3 4 1 7 -6 7 -8 0 -10 7 -6 21 5 16 4 19
-5 14 -8 -5 -11 -4 -6 3 3 6 2 13 -4 17 -17 10 -11 24 9 22 13 -1 18 -7 16
-19 -3 -11 0 -16 7 -12 6 4 5 -3 -2 -16 -10 -18 -9 -21 1 -15 8 6 10 4 4 -5
-6 -9 -4 -11 6 -5 12 8 12 6 0 -8 -7 -10 -9 -17 -3 -17 6 0 12 3 15 8 2 4 3 2
1 -4 -1 -6 3 -17 9 -24 9 -10 9 -11 -2 -5 -9 5 -8 0 3 -17 9 -14 13 -28 9 -31
-3 -4 0 -7 7 -7 11 0 11 -3 2 -12 -15 -15 -15 -25 1 -25 6 0 21 -4 32 -8 16
-6 17 -5 5 4 -13 10 -13 12 0 21 8 5 10 10 4 10 -5 0 -15 -5 -22 -12 -9 -9
-12 -9 -12 -1 0 7 5 15 10 18 6 3 10 12 10 18 0 7 -4 6 -10 -3 -6 -10 -10 -11
-10 -2 0 19 4 27 13 24 5 -1 6 2 2 7 -3 6 -12 8 -20 5 -14 -6 -15 12 -2 34 9
14 0 35 -13 27 -13 -8 -31 21 -24 39 4 9 1 16 -6 16 -10 0 -10 3 0 15 17 21 5
31 -17 14 -15 -12 -16 -12 -10 4 7 18 0 47 -12 47 -4 0 -8 -10 -8 -22 -2 -18
0 -20 7 -8 6 9 10 10 10 3 0 -22 -19 -24 -30 -3 -6 11 -8 20 -4 20 3 0 -1 11
-9 24 -15 22 -15 25 0 38 14 11 16 11 8 -1 -5 -9 -4 -12 3 -7 7 4 9 -3 6 -21
-3 -19 -1 -23 4 -15 13 19 25 17 33 -5 6 -13 7 -11 6 10 -1 25 -17 40 -17 16
0 -5 -5 -7 -11 -4 -7 5 -4 14 8 28 12 15 13 18 2 9 -9 -6 -19 -9 -22 -5 -9 9
-9 23 1 22 22 -4 34 3 29 16 -4 8 -2 17 3 20 6 4 10 0 10 -7 0 -8 5 -6 11 5 6
9 15 15 20 11 5 -3 9 -2 8 3 -4 22 3 25 17 7 14 -17 14 -16 0 9 -9 15 -12 27
-7 27 6 0 15 -8 20 -17 6 -11 11 -13 11 -5 0 8 5 10 13 6 9 -6 9 -5 -1 8 -10
13 -9 18 5 29 14 12 16 12 11 -2 -4 -9 -1 -16 7 -16 8 0 11 7 7 15 -4 11 -1
14 12 9 10 -4 15 -3 11 3 -6 9 8 14 27 11 5 0 7 5 5 12 -1 7 6 11 18 9 15 -2
17 0 6 6 -10 7 -10 11 -1 17 7 4 16 2 20 -5 5 -8 9 -7 13 5 4 9 3 13 -3 10 -6
-3 -10 -2 -10 4 0 19 19 21 30 4 10 -15 11 -15 6 -1 -7 22 28 51 64 53 16 1
32 4 35 8 3 4 2 5 -2 2 -3 -3 -16 1 -27 9 -23 15 -79 19 -70 5 3 -5 0 -9 -6
-9 -7 0 -9 -7 -6 -16 4 -10 2 -13 -6 -8 -7 5 -8 3 -3 -6 6 -9 4 -11 -5 -5 -9
6 -11 4 -5 -5 6 -9 4 -11 -5 -5 -9 6 -11 4 -5 -5 6 -9 4 -11 -5 -5 -9 6 -11 4
-6 -6 4 -8 1 -6 -6 3 -13 15 -15 15 -28 -5 -8 -12 -13 -25 -12 -29 1 -5 -2 -8
-8 -8 -5 0 -10 5 -10 10 0 6 -5 10 -11 10 -8 0 -8 -4 -1 -13 7 -8 6 -18 -4
-31 -8 -11 -14 -15 -14 -10 0 6 6 16 13 23 10 11 9 12 -3 5 -8 -5 -19 -9 -25
-10 -5 0 -16 -2 -24 -2 -8 -1 -11 -8 -7 -18 4 -10 2 -13 -6 -8 -6 4 -8 3 -5
-3 8 -12 -20 -27 -43 -24 -13 2 -13 1 0 -8 13 -10 13 -11 0 -12 -8 -1 -18 -1
-22 0 -4 0 -5 -7 -1 -17 5 -14 3 -14 -9 2 -15 19 -15 19 -13 0 0 -11 5 -26 10
-34 8 -13 6 -13 -8 -1 -15 12 -21 9 -19 -10 1 -4 -7 -14 -18 -24 -19 -17 -19
-17 -15 4 2 11 0 23 -5 26 -7 4 -7 13 -1 44 1 2 9 -3 18 -10 15 -12 16 -12 9
6 -4 11 -4 16 0 13 3 -4 18 4 32 17 14 13 32 21 40 17 11 -4 13 -2 7 9 -7 11
-5 11 10 -1 17 -14 17 -13 11 10 -6 19 -5 21 3 10 9 -13 11 -13 11 2 0 10 10
20 25 24 14 3 22 11 18 17 -3 6 -1 7 5 3 7 -4 12 -2 12 3 0 6 7 11 16 11 8 0
12 5 9 10 -4 6 -3 10 2 9 16 -4 43 13 36 24 -3 5 -1 7 4 4 6 -4 18 2 28 13 10
11 20 18 24 17 3 -1 22 12 41 30 l34 33 -219 1 c-290 2 -290 2 -291 17 -1 6
-3 14 -4 17 -1 3 -3 8 -4 13 -1 4 -4 12 -7 17 -4 6 -5 18 -4 28 2 9 0 17 -5
17 -4 0 -13 14 -20 30 -10 23 -10 33 -1 44 8 10 9 16 1 21 -5 3 -10 1 -10 -6
0 -19 -10 -5 -15 21 -2 12 -8 27 -12 34 -5 6 -8 20 -8 31 0 11 -5 25 -11 30
-6 6 -20 37 -29 70 -10 33 -21 64 -25 68 -4 5 -26 -47 -49 -115z m723 -407 c4
-5 -2 -8 -11 -7 -9 2 -28 -9 -41 -23 -14 -14 -19 -18 -12 -8 7 9 9 17 4 17
-14 1 28 30 42 30 7 0 15 -4 18 -9z m-131 -93 c-10 -11 -27 -24 -38 -30 -14
-7 -13 -3 5 11 14 11 21 21 16 21 -5 0 -3 7 4 15 7 8 17 12 22 9 5 -3 1 -15
-9 -26z m-83 -37 c0 -5 -7 -14 -15 -21 -8 -7 -12 -17 -8 -23 3 -6 1 -7 -6 -3
-6 4 -8 13 -4 19 4 7 8 15 9 20 3 15 4 17 14 17 6 0 10 -4 10 -9z m-75 -71
c-10 -11 -21 -18 -23 -15 -3 3 3 12 14 20 27 20 30 18 9 -5z m16 -303 c-10 -9
-11 -8 -5 6 3 10 9 15 12 12 3 -3 0 -11 -7 -18z"/>
<path d="M3233 3510 c3 -11 2 -22 -2 -25 -11 -6 -7 -57 7 -81 6 -12 8 -25 4
-29 -4 -5 -2 -5 4 -2 15 8 39 -19 25 -27 -12 -8 -6 -43 11 -64 7 -8 14 -23 14
-34 1 -10 3 -20 4 -23 1 -3 4 -9 5 -15 1 -5 4 -13 5 -17 1 -5 2 -11 1 -15 0
-5 4 -8 9 -8 10 0 13 9 13 43 0 9 5 17 11 17 6 0 4 5 -4 10 -8 5 -16 14 -16
20 -1 5 -2 11 -3 13 -2 1 -4 13 -7 26 -2 13 -12 30 -22 37 -16 12 -16 13 0 19
16 6 16 9 -5 27 -15 13 -18 21 -9 24 6 3 12 10 12 15 0 6 -4 8 -9 4 -6 -3 -15
4 -21 15 -6 11 -8 20 -4 20 3 0 2 6 -3 13 -5 6 -8 22 -7 35 0 12 -3 22 -9 22
-5 0 -7 -9 -4 -20z m6 -42 c-1 -1 4 -14 11 -28 8 -14 13 -29 12 -34 -2 -5 3
-16 10 -25 7 -10 2 -5 -12 10 -15 16 -25 40 -25 58 -1 16 1 28 3 26 2 -2 3 -5
1 -7z m54 -165 c-4 -11 -2 -14 6 -9 6 4 11 4 10 -1 -1 -4 0 -11 1 -15 1 -5 4
-12 5 -18 1 -5 4 -11 5 -12 5 -6 6 -58 1 -52 -3 3 -7 10 -7 15 -1 5 -3 11 -4
14 -1 3 -3 13 -4 23 0 11 -7 26 -14 34 -7 9 -15 26 -17 38 -3 18 -2 20 10 10
8 -6 11 -19 8 -27z"/>
<path d="M3270 3459 c0 -5 5 -7 10 -4 6 3 10 8 10 11 0 2 -4 4 -10 4 -5 0 -10
-5 -10 -11z"/>
<path d="M3350 3209 c0 -5 5 -7 10 -4 6 3 10 8 10 11 0 2 -4 4 -10 4 -5 0 -10
-5 -10 -11z"/>
<path d="M3716 3069 c-11 -11 -15 -19 -9 -19 12 0 38 28 32 34 -2 2 -13 -5
-23 -15z"/>
<path d="M3659 3023 c-13 -16 -12 -17 4 -4 16 13 21 21 13 21 -2 0 -10 -8 -17
-17z"/>
<path d="M3491 2917 c-8 -10 -7 -14 2 -14 8 0 14 6 14 14 0 7 -1 13 -2 13 -2
0 -8 -6 -14 -13z"/>
<path d="M3456 2874 c-5 -13 -9 -14 -20 -5 -12 10 -14 9 -11 -6 2 -10 4 -20 5
-23 1 -3 2 -9 1 -13 -1 -5 3 -5 9 -2 6 4 9 10 6 13 -3 3 1 14 11 24 9 10 14
21 11 23 -3 3 -8 -2 -12 -11z"/>
<path d="M3139 2677 c-1 -4 -3 -11 -4 -17 -1 -5 -3 -15 -4 -21 -1 -8 -6 -8
-16 1 -13 10 -19 8 -36 -14 -11 -14 -25 -23 -31 -20 -7 4 -8 2 -4 -4 4 -7 4
-12 -1 -13 -44 -4 -104 -44 -97 -64 7 -16 -12 -29 -21 -15 -4 6 -11 8 -16 4
-5 -3 -6 -10 -3 -16 5 -7 1 -9 -9 -5 -12 4 -14 2 -10 -10 4 -11 2 -14 -5 -9
-12 7 -14 2 -14 -34 0 -34 2 -40 13 -40 8 0 8 4 0 14 -9 11 -9 16 0 21 8 6 8
9 -1 15 -8 5 -8 9 3 13 11 4 14 -1 12 -21 -2 -24 -2 -24 10 -8 8 10 18 15 24
11 7 -4 8 1 4 12 -5 15 -3 16 8 6 7 -7 18 -13 23 -13 6 0 3 5 -7 11 -9 6 -15
15 -11 21 4 6 10 5 15 -3 7 -11 9 -11 9 1 0 12 2 12 9 2 6 -10 10 -10 21 3 11
13 10 15 -1 10 -10 -4 -15 2 -16 15 -1 12 2 18 9 14 18 -11 58 -13 58 -2 0 5
-8 7 -18 4 -13 -4 -19 -1 -19 9 0 11 8 13 28 10 15 -3 31 0 34 5 4 6 10 8 15
5 5 -3 12 0 16 6 4 8 3 9 -4 5 -7 -4 -12 -3 -12 2 0 17 13 22 29 10 13 -10 14
-10 4 2 -17 19 -16 35 1 21 10 -8 16 -8 25 2 6 8 7 18 3 22 -4 5 1 5 10 2 28
-10 29 8 3 33 -14 13 -26 20 -26 17z m27 -29 c15 -19 16 -20 2 -9 -12 9 -18
10 -19 2 -1 -6 -3 -15 -4 -21 -1 -5 -3 -13 -4 -16 0 -4 -7 -2 -14 4 -9 8 -18
5 -32 -12 -11 -12 -21 -26 -22 -31 -2 -14 -23 -19 -23 -6 0 6 -5 11 -11 11 -5
0 -7 -4 -4 -10 10 -16 -1 -11 -16 7 -9 10 -9 14 -2 10 7 -5 28 7 51 27 28 25
42 32 49 25 8 -8 14 -5 22 9 6 10 7 22 4 26 -3 3 -4 6 -1 6 3 0 13 -10 24 -22z
m-160 -103 c1 -8 -2 -15 -7 -15 -5 0 -9 5 -9 12 0 9 -3 9 -12 0 -7 -7 -16 -12
-21 -12 -5 0 1 9 14 19 25 20 32 20 35 -4z m-35 -39 c-1 -3 -4 -6 -7 -5 -3 1
-19 -11 -34 -26 -24 -23 -28 -24 -25 -9 2 11 4 21 5 24 1 3 2 9 1 14 -1 5 4 4
12 -2 11 -10 17 -9 27 3 12 14 23 15 21 1z"/>
<path d="M3076 2601 c-20 -21 -24 -31 -15 -36 7 -5 10 -4 5 3 -3 6 -1 14 6 19
15 9 43 43 36 43 -2 0 -17 -13 -32 -29z"/>
<path d="M3537 2655 c-6 -15 10 -32 20 -21 4 3 1 6 -5 6 -6 0 -9 7 -6 15 4 8
4 15 1 15 -3 0 -7 -7 -10 -15z"/>
<path d="M1875 2430 l-77 -230 -257 -2 -256 -3 63 -43 c34 -23 62 -47 62 -53
0 -6 5 -7 10 -4 6 3 10 3 10 -2 0 -4 23 -21 50 -36 28 -16 50 -32 50 -38 0 -5
6 -9 13 -9 6 -1 26 -12 42 -26 17 -15 24 -23 16 -19 -9 5 -12 4 -7 -3 4 -6 13
-9 21 -5 8 3 15 0 15 -6 0 -6 6 -11 13 -11 8 0 24 -9 37 -20 21 -19 20 -25 -5
-20 -5 1 -5 -4 1 -10 9 -9 -6 -65 -62 -227 -41 -118 -74 -217 -74 -219 0 -2
29 16 64 41 53 37 66 42 76 31 7 -10 8 -16 0 -21 -5 -3 -10 -1 -10 6 0 7 -2
10 -5 7 -8 -8 6 -38 17 -38 5 0 6 5 2 12 -4 7 -3 8 4 4 16 -10 5 -32 -18 -33
-13 -1 -18 2 -14 9 4 7 2 8 -5 4 -6 -4 -9 -11 -6 -16 3 -4 0 -11 -5 -13 -6 -3
-5 -4 2 -3 7 2 21 -1 32 -6 10 -6 16 -6 13 -1 -3 4 6 22 20 38 18 22 24 24 19
10 -5 -17 -3 -16 12 4 13 15 24 21 32 16 9 -6 11 -4 5 5 -6 10 -4 12 7 7 12
-4 14 -1 11 14 -6 21 12 27 20 7 4 -10 6 -10 6 0 1 7 6 10 13 6 6 -4 9 -3 5 2
-3 5 1 18 9 28 13 18 14 18 20 2 5 -13 9 -14 14 -5 5 7 3 20 -3 30 -9 15 -12
16 -22 3 -6 -8 -19 -17 -30 -18 -11 -2 -19 -8 -18 -14 1 -6 -4 -13 -12 -16 -9
-3 -12 0 -9 8 3 8 1 17 -5 21 -6 3 -11 1 -11 -5 0 -7 -6 -10 -13 -7 -8 3 -14
-1 -14 -8 0 -11 5 -11 19 -4 18 10 18 8 8 -11 -10 -18 -9 -21 1 -15 8 5 10 4
5 -3 -11 -19 -29 -14 -22 6 4 10 -2 7 -14 -8 -12 -15 -18 -18 -14 -7 4 10 1
17 -6 17 -6 0 -9 -4 -5 -9 3 -5 1 -13 -5 -16 -6 -4 -9 -1 -8 7 2 7 -3 12 -9
11 -7 -2 -13 2 -13 7 0 10 14 14 40 10 8 -1 12 2 7 6 -9 9 22 44 40 44 7 0 13
6 13 13 0 9 3 8 9 -2 6 -9 11 -10 15 -2 4 6 4 11 0 11 -3 0 -1 7 6 15 12 14
15 14 30 0 11 -10 21 -12 24 -7 3 6 -1 13 -10 16 -8 3 -12 10 -9 16 4 6 10 8
15 5 4 -3 11 2 14 10 3 8 9 14 13 13 5 -2 21 9 37 24 l29 27 59 -40 c32 -22
58 -45 58 -51 0 -6 3 -8 6 -5 4 4 24 -7 44 -23 20 -16 40 -27 44 -23 3 3 6 2
6 -3 0 -5 14 -18 30 -28 17 -9 28 -21 25 -27 -3 -5 1 -6 9 -3 9 3 16 2 16 -3
0 -6 12 -15 26 -21 14 -7 23 -16 19 -21 -3 -5 0 -13 6 -17 8 -4 9 -3 5 4 -10
16 0 15 29 -4 14 -9 22 -20 19 -25 -3 -5 -1 -9 5 -9 5 0 11 6 14 13 2 6 8 9
12 5 4 -4 2 -16 -6 -25 -12 -16 -12 -17 2 -6 9 7 18 11 20 8 3 -2 5 4 5 15 0
10 -4 16 -9 13 -5 -3 -7 0 -5 8 3 8 11 13 17 11 7 -1 9 2 6 8 -4 6 -10 9 -13
6 -3 -3 -10 -1 -17 4 -8 7 -12 5 -12 -5 0 -8 5 -11 10 -8 6 3 7 1 3 -6 -12
-19 -24 -2 -20 28 3 20 0 30 -12 35 -9 3 -14 12 -10 21 3 8 0 15 -6 15 -6 0
-8 3 -5 6 3 4 1 16 -5 28 -7 11 -13 30 -15 40 -2 11 -8 25 -14 32 -6 8 -7 14
0 18 10 7 33 -26 29 -41 -1 -4 3 -17 9 -28 6 -11 11 -23 12 -28 0 -4 5 -15 10
-25 10 -15 10 -15 8 3 -2 11 -8 29 -13 40 -6 11 -10 27 -9 35 0 8 -8 24 -17
34 -10 11 -18 27 -18 37 0 9 -8 23 -17 30 -16 13 -17 12 -4 -3 8 -11 9 -18 3
-18 -19 0 -24 20 -10 37 11 15 11 16 -5 10 -11 -4 -16 -3 -12 3 3 6 1 10 -4
10 -6 0 -11 8 -11 18 1 16 2 16 15 -2 7 -10 20 -16 27 -13 10 4 10 6 -1 6 -11
1 -11 4 0 19 13 16 13 16 -5 2 -18 -14 -19 -13 -13 3 4 10 7 21 7 23 0 3 4 2
10 -1 6 -4 7 1 3 11 -4 12 -3 15 5 10 8 -5 10 -2 6 9 -7 17 15 18 27 1 4 -4 7
4 7 18 0 15 7 35 16 45 19 21 20 31 4 31 -6 0 -8 -3 -5 -7 4 -3 2 -12 -4 -20
-10 -11 -15 -11 -27 -1 -9 7 -13 8 -9 2 3 -6 0 -11 -8 -11 -8 0 -15 4 -15 9 0
5 -5 6 -11 3 -6 -5 -4 -12 8 -22 10 -8 12 -11 4 -7 -10 5 -12 3 -7 -7 4 -8 0
-5 -8 5 -9 11 -16 15 -16 10 0 -6 6 -16 13 -24 10 -12 9 -12 -3 -3 -11 8 -20
9 -30 1 -12 -8 -12 -9 3 -4 12 4 16 2 11 -6 -4 -6 -3 -9 2 -5 5 3 10 -8 10
-24 1 -17 -3 -28 -8 -27 -5 2 -9 7 -8 12 1 5 -4 13 -12 17 -11 7 -10 9 1 9 12
0 11 3 -2 13 -12 8 -14 16 -7 27 5 8 10 12 10 7 0 -4 14 7 31 25 17 18 27 27
23 19 -4 -9 -2 -12 7 -9 8 3 13 11 11 17 -1 7 2 10 8 6 5 -3 10 -3 10 2 0 10
62 53 72 50 4 -1 15 8 24 21 13 19 18 21 32 10 14 -11 15 -10 8 7 -4 11 -4 16
0 12 4 -4 13 2 21 13 8 11 21 20 29 20 9 0 12 5 8 12 -4 7 -3 8 4 4 7 -4 12
-3 12 2 0 5 21 24 48 41 l47 31 -247 1 c-293 2 -273 0 -273 19 0 8 -4 20 -8
27 -4 6 -4 19 0 29 4 12 3 15 -5 10 -8 -4 -10 -2 -6 8 3 8 13 12 22 9 11 -3 9
1 -5 11 -13 10 -20 24 -18 36 2 10 -3 24 -11 31 -12 9 -12 15 -2 27 8 10 9 13
2 9 -7 -4 -15 0 -18 9 -5 12 -2 15 11 10 15 -5 14 -3 -2 10 -11 8 -19 21 -17
28 1 7 -5 19 -13 26 -8 7 -15 17 -15 22 0 6 7 5 15 -2 9 -7 17 -11 19 -9 2 2
-6 12 -19 21 -23 17 -23 17 -20 -7 1 -14 -2 -25 -6 -25 -8 0 -13 24 -8 33 1 1
-8 21 -20 44 -11 23 -21 49 -21 57 0 8 -4 17 -9 20 -5 3 -44 -97 -86 -224z
m172 44 c-9 -9 -28 6 -21 18 4 6 10 6 17 -1 6 -6 8 -13 4 -17z m10 -37 c7 -36
9 -42 18 -57 5 -8 10 -22 10 -30 0 -8 4 -20 8 -27 4 -6 2 -15 -5 -19 -7 -4
-10 -4 -6 1 4 4 3 13 -2 20 -5 6 -11 20 -13 31 -2 10 -7 26 -10 34 -3 8 -7 24
-9 35 -2 11 -7 24 -13 28 -6 5 -4 7 4 5 8 -2 16 -12 18 -21z m270 -526 c-2 -9
-9 -15 -15 -13 -7 1 -15 -5 -18 -13 -4 -8 -11 -15 -17 -15 -6 0 -1 10 11 23
12 13 20 26 17 29 -3 2 2 5 10 5 9 0 14 -7 12 -16z m-487 -346 c0 -2 -6 -8
-13 -14 -10 -8 -14 -7 -14 2 0 8 6 14 14 14 7 0 13 -1 13 -2z m-120 -71 c0 -8
-19 -13 -24 -6 -3 5 1 9 9 9 8 0 15 -2 15 -3z"/>
<path d="M3564 2456 c2 -11 8 -22 14 -24 7 -2 10 -7 8 -11 -3 -4 1 -8 9 -8 8
0 12 4 9 9 -3 4 0 8 5 8 6 0 11 5 11 12 0 9 -3 9 -11 1 -9 -9 -16 -6 -30 10
-16 20 -17 21 -15 3z"/>
<path d="M2835 2441 c-3 -5 -2 -12 3 -15 5 -3 9 1 9 9 0 17 -3 19 -12 6z"/>
<path d="M3620 2411 c0 -6 4 -13 10 -16 6 -3 7 1 4 9 -7 18 -14 21 -14 7z"/>
<path d="M2110 2339 c0 -5 5 -7 10 -4 6 3 10 8 10 11 0 2 -4 4 -10 4 -5 0 -10
-5 -10 -11z"/>
<path d="M2114 2258 c-5 -8 3 -12 19 -9 10 2 9 -13 -3 -25 -6 -6 0 -10 18 -11
17 -1 21 1 12 5 -8 4 -15 16 -14 28 1 20 -22 29 -32 12z"/>
<path d="M2553 2133 c6 -10 -20 -36 -44 -41 -21 -5 -29 -25 -17 -39 14 -18 3
-28 -32 -29 -20 0 -26 4 -23 14 5 11 7 11 14 0 6 -9 9 -9 9 -1 0 22 -19 24
-30 3 -6 -11 -15 -19 -19 -17 -14 3 -92 -64 -85 -74 3 -5 10 -7 15 -3 5 3 7 9
4 14 -9 15 15 22 30 10 12 -10 11 -15 -8 -30 -12 -10 -19 -21 -16 -24 8 -9 70
24 64 34 -3 4 3 14 12 21 15 12 16 12 10 -3 -3 -10 -3 -18 2 -18 5 0 11 9 14
21 4 13 10 18 18 13 7 -4 10 -3 5 4 -3 6 -15 9 -26 7 -11 -2 -20 1 -20 7 0 6
13 8 30 6 17 -3 30 -1 30 4 0 4 6 7 13 6 6 -2 11 4 9 13 -1 9 5 16 13 16 9 0
14 -6 11 -14 -3 -8 -1 -11 5 -8 5 4 7 16 4 28 -5 20 -5 20 8 -2 12 -20 15 -21
20 -7 4 10 1 19 -8 22 -8 4 -15 10 -15 15 0 11 23 7 33 -6 9 -12 39 24 30 38
-3 5 4 7 18 3 21 -6 22 -5 6 4 -13 8 -22 9 -31 1 -7 -6 -16 -8 -20 -4 -4 4 -4
-1 0 -12 7 -18 6 -18 -9 -6 -9 7 -15 17 -12 21 3 5 0 12 -6 16 -7 4 -9 3 -6
-3z m13 -35 c4 -7 3 -8 -4 -4 -7 4 -16 -3 -23 -17 -11 -24 -31 -29 -46 -12 -4
4 -2 5 5 1 7 -5 12 -1 13 11 0 12 2 13 6 5 4 -10 9 -8 20 7 16 24 19 25 29 9z
m-141 -100 c-2 -30 -21 -43 -40 -28 -14 12 -14 15 0 30 20 22 42 21 40 -2z"/>
<path d="M2391 1996 c-9 -10 -9 -16 -1 -21 16 -10 31 7 21 23 -6 10 -10 10
-20 -2z"/>
<path d="M2470 2040 c0 -5 5 -10 10 -10 6 0 10 5 10 10 0 6 -4 10 -10 10 -5 0
-10 -4 -10 -10z"/>
<path d="M1640 1926 c0 -2 7 -7 16 -10 8 -3 12 -2 9 4 -6 10 -25 14 -25 6z"/>
<path d="M2300 1771 c0 -6 4 -13 10 -16 6 -3 7 1 4 9 -7 18 -14 21 -14 7z"/>
<path d="M1925 1690 c-15 -16 -33 -27 -38 -23 -6 3 -7 1 -3 -6 4 -6 12 -8 18
-5 7 4 8 2 4 -4 -4 -6 -13 -9 -21 -5 -11 4 -14 -1 -12 -15 4 -24 25 -52 41
-52 6 0 4 5 -4 10 -8 5 -11 10 -6 10 5 0 1 10 -10 21 -19 22 -19 22 4 10 12
-7 27 -9 33 -5 8 4 9 -1 5 -17 l-7 -24 14 24 c11 18 16 21 21 10 3 -8 3 -3 0
10 -5 17 -3 21 6 16 8 -5 11 -4 7 2 -8 13 42 12 62 -1 32 -20 0 11 -42 41
l-44 32 -28 -29z m30 10 c-5 -9 7 -14 27 -12 3 1 12 -5 18 -13 9 -11 9 -15 1
-15 -6 0 -11 6 -11 13 0 6 -11 1 -23 -13 -20 -22 -24 -24 -37 -10 -14 13 -13
17 4 38 20 23 32 30 21 12z m-25 -60 c0 -5 -5 -10 -11 -10 -5 0 -7 5 -4 10 3
6 8 10 11 10 2 0 4 -4 4 -10z"/>
<path d="M1937 1677 c-9 -23 8 -30 24 -10 8 9 9 14 2 10 -6 -4 -13 -2 -15 5
-3 8 -7 6 -11 -5z"/>
<path d="M2335 1700 c3 -5 8 -10 11 -10 2 0 4 5 4 10 0 6 -5 10 -11 10 -5 0
-7 -4 -4 -10z"/>
<path d="M702 1463 c-35 -104 -71 -207 -79 -230 l-16 -43 -256 0 -256 -1 30
-22 c16 -12 38 -30 47 -39 10 -10 20 -18 23 -18 13 0 83 -58 77 -64 -3 -4 0
-4 9 -1 9 3 30 -9 54 -32 22 -21 35 -32 30 -24 -5 9 2 7 17 -5 14 -10 24 -22
22 -25 -2 -3 2 -6 9 -6 7 0 31 -12 54 -27 37 -25 40 -30 33 -54 -4 -15 -36
-108 -70 -207 -34 -99 -65 -192 -70 -207 -8 -25 -3 -23 78 30 48 30 101 66
117 78 17 12 36 19 44 16 8 -2 11 0 8 6 -4 5 -1 15 7 21 11 9 18 8 30 -4 9 -9
16 -15 17 -13 8 33 6 39 -9 33 -9 -3 -3 6 13 19 29 24 39 29 50 24 2 -2 12 7
20 20 19 26 40 30 31 6 -5 -14 -4 -15 7 -5 11 9 20 7 38 -10 13 -11 18 -17 10
-13 -9 4 -12 3 -8 -4 4 -5 15 -8 25 -6 10 3 31 -8 52 -27 19 -18 36 -32 38
-31 3 3 55 -30 62 -39 3 -3 15 -11 28 -18 13 -7 20 -17 16 -23 -5 -8 -1 -9 10
-5 10 4 19 1 22 -8 4 -8 10 -13 14 -10 5 3 16 -5 24 -17 9 -12 16 -19 16 -15
0 5 14 -1 30 -13 17 -12 38 -23 48 -25 9 -1 16 -8 14 -15 -1 -6 2 -9 8 -5 8 5
7 11 -1 21 -6 8 -14 12 -17 9 -3 -2 -11 3 -17 12 -13 18 -9 47 6 38 4 -3 6
-11 4 -18 -3 -7 7 -17 21 -24 21 -10 23 -9 15 1 -6 7 -7 17 -3 21 4 5 -2 5
-12 1 -19 -7 -19 -6 -2 13 17 18 17 21 3 27 -8 3 -24 1 -35 -5 -16 -9 -19 -7
-18 12 1 12 -4 27 -11 32 -7 6 -14 21 -15 35 -2 14 -7 31 -11 38 -5 6 -5 12
-1 12 4 0 0 8 -8 18 -9 9 -14 27 -12 40 3 16 0 21 -8 16 -7 -4 -8 -3 -4 5 6 8
12 9 20 2 7 -6 16 -7 21 -3 4 4 5 0 3 -8 -3 -8 -11 -14 -18 -12 -11 3 -11 0 0
-12 7 -9 16 -16 20 -16 13 0 8 49 -6 61 -8 6 -14 8 -14 5 0 -4 -9 -2 -20 4
-12 7 -17 16 -13 27 5 12 3 14 -7 8 -8 -5 -11 -4 -6 3 3 6 2 14 -4 17 -6 4 -8
16 -4 27 5 15 3 19 -7 13 -8 -5 -11 -5 -7 0 4 4 3 14 -3 22 -6 7 -8 13 -5 13
4 0 2 9 -3 19 -8 14 -7 22 4 31 8 7 15 9 15 5 0 -3 18 9 41 29 25 21 47 32 57
29 11 -5 13 -3 7 8 -7 11 -5 11 10 -1 17 -14 18 -13 12 2 -6 17 7 32 28 33 6
1 9 7 7 14 -1 7 2 10 8 6 5 -3 10 0 10 7 0 9 3 9 10 -2 8 -13 10 -13 10 1 0
18 26 34 63 38 9 1 9 3 -1 10 -14 8 -9 13 20 20 4 1 21 15 39 32 17 16 35 29
40 29 5 0 9 5 9 10 0 6 -80 10 -221 10 -189 0 -223 2 -237 16 -14 15 -17 15
-30 -2 -14 -18 -14 -18 -8 1 4 11 8 24 9 30 1 5 9 16 17 22 13 11 13 12 -2 7
-14 -5 -16 -1 -12 20 2 14 1 26 -3 25 -30 -5 -43 26 -19 44 7 6 4 7 -6 3 -10
-3 -18 -1 -18 4 0 6 8 10 18 10 16 1 16 1 0 11 -12 7 -24 6 -39 -2 -13 -6 -19
-7 -15 -1 3 6 2 13 -4 17 -6 4 -8 11 -4 16 3 5 10 7 15 3 5 -3 6 -11 2 -17 -5
-8 -2 -8 9 0 8 7 17 11 20 8 2 -3 5 2 5 10 0 8 -4 15 -9 15 -4 0 -8 -5 -8 -11
0 -5 -4 -8 -10 -4 -5 3 -7 12 -4 19 7 18 -12 30 -22 15 -4 -8 -3 -9 4 -5 7 4
12 2 12 -4 0 -7 -6 -10 -12 -7 -7 2 -12 10 -10 17 2 7 -2 16 -8 20 -8 5 -6 9
5 13 9 4 14 3 11 -1 -2 -4 4 -9 15 -9 10 -1 19 3 19 8 0 6 -4 8 -9 5 -9 -6
-21 14 -27 43 -4 21 -21 34 -21 16 0 -8 3 -15 7 -15 3 0 6 -9 7 -20 1 -11 -4
-20 -13 -20 -8 0 -13 3 -12 8 2 6 -51 152 -55 152 -1 0 -31 -84 -65 -187z
m193 -108 c-2 -14 1 -25 6 -25 6 0 8 -4 5 -8 -3 -5 3 -15 13 -24 18 -15 23
-66 7 -71 -9 -2 -13 8 -18 48 -2 11 -7 23 -11 26 -4 3 -9 16 -10 27 -1 12 -5
22 -10 22 -5 0 -4 7 3 15 17 20 18 19 15 -10z m70 -155 c3 -5 1 -10 -4 -10 -6
0 -11 5 -11 10 0 6 2 10 4 10 3 0 8 -4 11 -10z m255 -704 c0 -11 -19 -15 -25
-6 -3 5 1 10 9 10 9 0 16 -2 16 -4z"/>
<path d="M1819 1627 c-1 -4 -2 -10 -3 -14 -3 -19 -18 -33 -28 -27 -7 4 -8 2
-4 -5 4 -6 13 -8 19 -4 7 4 18 8 25 9 24 4 26 14 9 31 -9 10 -18 14 -18 10z
m16 -16 c3 -5 2 -12 -3 -15 -5 -3 -9 1 -9 9 0 17 3 19 12 6z"/>
<path d="M2360 1540 c18 -12 30 -13 30 -2 0 4 -10 9 -22 9 -18 2 -20 0 -8 -7z"/>
<path d="M2387 1509 c7 -7 15 -10 18 -7 3 3 -2 9 -12 12 -14 6 -15 5 -6 -5z"/>
<path d="M1705 1440 c-3 -6 1 -7 9 -4 18 7 21 14 7 14 -6 0 -13 -4 -16 -10z"/>
<path d="M1428 1118 c-7 -13 -11 -27 -9 -33 1 -5 -3 -5 -10 2 -10 10 -10 15 0
27 10 12 9 14 -5 12 -9 -1 -22 -10 -29 -20 -9 -11 -15 -13 -20 -6 -3 5 -11 8
-16 4 -5 -3 -7 -9 -4 -14 6 -10 -29 -32 -38 -24 -3 3 -13 -6 -22 -20 -10 -14
-21 -24 -25 -21 -5 3 -16 -5 -24 -17 -9 -12 -16 -17 -16 -10 0 7 -5 10 -11 6
-7 -4 -8 -9 -1 -13 7 -4 6 -12 -3 -24 -10 -14 -14 -15 -18 -5 -4 10 -6 10 -6
-1 -1 -10 -4 -11 -15 -2 -11 9 -21 5 -47 -20 -19 -17 -41 -33 -49 -34 -8 -1
-13 -9 -11 -16 2 -8 4 -20 5 -27 1 -7 7 -17 14 -24 9 -9 16 -5 32 15 11 14 27
24 34 21 8 -3 17 -1 21 5 4 7 -1 8 -12 4 -10 -3 -15 -3 -11 2 4 4 2 15 -5 23
-10 13 -9 14 10 4 29 -16 33 -15 33 4 0 13 4 11 18 -7 13 -15 21 -19 26 -10 4
7 2 10 -5 9 -6 -2 -14 3 -17 11 -3 9 0 11 7 7 7 -4 10 -2 9 5 -2 6 3 14 11 17
8 2 11 0 8 -5 -3 -5 0 -10 8 -10 8 0 15 4 15 9 0 4 -5 8 -11 8 -5 0 -7 5 -4
10 4 6 11 7 17 4 7 -5 8 -2 3 6 -5 8 -3 11 6 8 8 -3 13 -11 11 -17 -1 -7 3 -9
9 -6 8 5 8 10 0 18 -6 6 -11 18 -10 26 0 11 2 12 6 3 2 -7 14 -17 26 -23 20
-9 20 -9 5 4 -28 22 -22 40 6 22 18 -12 26 -13 32 -4 4 7 3 9 -2 6 -6 -3 -16
-2 -24 4 -10 6 -11 9 -2 9 6 0 12 7 12 16 0 8 5 12 10 9 6 -4 7 -12 3 -18 -5
-8 -2 -8 9 0 8 7 19 9 23 5 5 -4 5 -2 2 4 -7 13 26 48 36 38 3 -4 13 1 22 10
9 9 21 14 26 11 5 -4 9 -1 9 5 0 7 -8 9 -21 5 -18 -6 -20 -5 -10 14 7 12 9 21
7 21 -3 0 -11 -10 -18 -22z m-33 -18 c-2 -30 -35 -62 -51 -49 -9 8 -16 5 -24
-11 -6 -11 -15 -18 -20 -15 -6 4 -26 -11 -45 -32 -19 -21 -35 -34 -35 -28 0 5
-7 -1 -16 -13 -8 -12 -19 -20 -24 -17 -5 3 -13 -3 -19 -12 -6 -10 -11 -13 -11
-8 0 12 -40 18 -40 6 0 -4 5 -12 10 -17 7 -7 0 -20 -20 -39 -16 -16 -30 -26
-30 -22 0 4 1 8 2 10 1 1 -4 13 -11 26 -7 13 -8 21 -3 17 6 -3 27 10 47 29 21
19 42 32 49 28 23 -15 35 -10 57 21 12 18 35 38 50 45 16 7 27 18 26 24 -1 7
4 11 12 9 18 -4 52 28 44 42 -4 6 0 5 9 -2 14 -11 18 -10 28 7 13 26 17 26 15
1z"/>
<path d="M1375 1080 c-4 -6 -10 -8 -15 -5 -5 3 -11 1 -14 -4 -12 -19 12 -20
29 -1 10 11 15 20 12 20 -3 0 -9 -5 -12 -10z"/>
<path d="M1229 983 c-13 -16 -12 -17 4 -4 9 7 17 15 17 17 0 8 -8 3 -21 -13z"/>
<path d="M1136 942 c-3 -5 1 -9 9 -9 8 0 12 4 9 9 -3 4 -7 8 -9 8 -2 0 -6 -4
-9 -8z"/>
<path d="M1089 897 c-9 -7 -16 -20 -16 -30 0 -15 3 -15 23 4 13 12 21 26 18
30 -6 11 -5 11 -25 -4z m21 -1 c0 -2 -8 -10 -17 -17 -16 -13 -17 -12 -4 4 13
16 21 21 21 13z"/>
<path d="M1395 1049 c-4 -6 -5 -12 -2 -15 2 -3 7 2 10 11 7 17 1 20 -8 4z"/>
<path d="M1075 809 c-4 -5 1 -19 10 -29 9 -10 15 -23 12 -27 -3 -5 3 -9 13
-10 10 -1 21 5 24 14 5 13 4 13 -8 4 -10 -9 -15 -8 -19 3 -3 7 -1 18 5 24 7 7
4 14 -10 21 -15 8 -23 8 -27 0z m27 -13 c7 4 8 2 4 -5 -9 -13 -26 -5 -25 12 0
9 2 8 6 -1 2 -6 10 -9 15 -6z"/>
<path d="M740 680 c-6 -11 -16 -18 -21 -14 -13 8 -7 -28 6 -39 6 -5 4 -7 -5
-4 -8 2 -16 9 -16 15 -3 23 -4 24 -18 13 -8 -7 -13 -20 -11 -29 1 -9 -2 -23
-8 -30 -8 -10 -14 -9 -28 4 -11 10 -20 14 -20 11 -1 -4 -2 -13 -3 -19 0 -7 -9
-13 -19 -13 -10 0 -22 -6 -26 -13 -5 -8 -12 -14 -17 -14 -19 -1 -53 -31 -47
-41 4 -6 0 -8 -9 -4 -12 4 -15 0 -11 -16 3 -16 2 -18 -5 -8 -7 9 -12 10 -16 2
-4 -6 -3 -11 3 -11 5 0 8 -11 5 -25 -3 -19 0 -25 13 -25 14 0 15 2 4 9 -9 6
-10 11 -2 15 6 4 8 12 5 18 -5 7 -2 9 8 6 8 -4 21 -2 29 3 12 7 12 10 0 21
-11 11 -13 11 -6 -1 6 -10 4 -12 -5 -6 -9 6 -11 4 -5 -5 6 -9 4 -11 -4 -6 -9
6 -8 13 6 29 10 12 20 24 22 27 2 3 1 -3 -2 -13 -5 -12 -3 -16 5 -11 7 5 8 3
3 -6 -5 -9 -4 -11 3 -6 8 5 10 1 6 -11 -3 -10 2 -5 11 10 16 27 17 28 41 12
13 -8 24 -11 24 -5 0 5 -4 10 -10 10 -5 0 -10 4 -10 9 0 5 11 8 25 7 13 -2 22
1 19 6 -7 10 14 38 28 38 6 0 4 -8 -3 -17 -7 -10 -2 -8 12 5 14 12 28 20 31
17 2 -3 5 2 5 10 0 13 -3 13 -19 -2 -10 -9 -18 -11 -18 -5 0 6 11 19 26 28 14
9 23 23 20 30 -3 7 1 15 9 18 14 5 14 -19 0 -47 -4 -6 -1 -5 7 4 8 9 23 14 38
12 l25 -4 -22 16 c-13 9 -23 21 -23 27 0 6 10 3 22 -8 19 -15 20 -16 9 -1 -11
14 -11 17 0 17 11 0 11 2 -1 10 -9 6 -18 6 -24 0 -15 -15 -29 -12 -22 5 8 22
-2 18 -14 -5z m-43 -37 c-4 -3 -2 -11 3 -18 6 -8 -4 -25 -35 -55 -25 -24 -45
-40 -45 -36 0 5 -7 3 -15 -4 -8 -7 -15 -9 -15 -5 0 4 -7 2 -16 -6 -13 -10 -17
-10 -24 1 -10 16 -3 33 10 25 5 -3 13 3 19 12 7 13 10 14 11 4 0 -11 5 -10 20
4 11 10 17 23 13 29 -4 6 3 3 14 -7 19 -16 21 -16 34 -1 8 10 15 25 15 36 2
25 3 28 11 28 3 0 3 -3 0 -7z"/>
<path d="M615 560 c-10 -11 -21 -17 -26 -15 -4 3 -10 1 -14 -5 -4 -6 -11 -7
-17 -4 -7 4 -8 2 -4 -5 6 -9 11 -9 22 0 8 6 14 8 14 4 0 -4 6 -2 13 4 8 6 16
9 19 6 3 -3 11 1 17 9 19 22 -4 28 -24 6z"/>
<path d="M1124 653 c11 -13 16 -23 11 -23 -4 0 -2 -6 4 -13 6 -8 8 -17 4 -20
-3 -4 2 -10 11 -13 14 -5 15 -9 4 -16 -10 -7 -10 -10 4 -18 9 -6 16 -16 14
-23 -1 -6 -1 -9 1 -4 3 4 9 5 13 2 5 -3 12 0 16 6 4 7 3 9 -3 6 -6 -4 -15 -1
-20 6 -13 17 -14 59 -2 51 6 -3 5 3 -3 15 -7 12 -19 19 -28 16 -9 -3 -6 2 5
11 12 10 14 14 5 11 -8 -2 -24 3 -35 12 -20 16 -20 16 -1 -6z m41 -42 c3 -5 2
-12 -3 -15 -5 -3 -9 1 -9 9 0 17 3 19 12 6z"/>
<path d="M1190 559 c0 -5 5 -7 10 -4 6 3 10 8 10 11 0 2 -4 4 -10 4 -5 0 -10
-5 -10 -11z"/>
<path d="M577 481 c-4 -17 -3 -21 5 -13 5 5 8 16 6 23 -3 8 -7 3 -11 -10z"/>
<path d="M510 440 c0 -5 5 -10 11 -10 5 0 7 5 4 10 -3 6 -8 10 -11 10 -2 0 -4
-4 -4 -10z"/>
</g>
</svg>
