<?xml version="1.0" standalone="no"?>
<!DOCTYPE svg PUBLIC "-//W3C//DTD SVG 20010904//EN"
 "http://www.w3.org/TR/2001/REC-SVG-20010904/DTD/svg10.dtd">
<svg version="1.0" xmlns="http://www.w3.org/2000/svg"
 width="16.000000pt" height="16.000000pt" viewBox="0 0 16.000000 16.000000"
 preserveAspectRatio="xMidYMid meet">
<metadata>
Created by potrace 1.11, written by Peter Selinger 2001-2013
</metadata>
<g transform="translate(0.000000,16.000000) scale(0.012403,-0.012403)"
fill="#000000" stroke="none">
<path d="M1225 1202 c-6 -5 -268 -127 -583 -272 -314 -145 -572 -266 -572
-269 0 -4 85 -35 189 -69 104 -35 191 -68 194 -75 2 -7 21 -108 42 -224 21
-117 40 -211 42 -209 3 2 24 79 48 171 24 92 46 170 49 172 3 3 84 -63 180
-147 109 -93 178 -146 181 -138 12 37 245 1053 243 1060 -2 5 -8 5 -13 0z"/>
</g>
</svg>
