<?xml version="1.0" encoding="utf-8"?>
<!-- Generator: Adobe Illustrator 16.0.0, SVG Export Plug-In . SVG Version: 6.00 Build 0)  -->
<!DOCTYPE svg PUBLIC "-//W3C//DTD SVG 1.1//EN" "http://www.w3.org/Graphics/SVG/1.1/DTD/svg11.dtd">
<svg version="1.1" id="Capa_1" xmlns="http://www.w3.org/2000/svg" xmlns:xlink="http://www.w3.org/1999/xlink" x="0px" y="0px"
	 width="36.75px" height="72.5px" viewBox="23.482 3.358 36.75 72.5" enable-background="new 23.482 3.358 36.75 72.5"
	 xml:space="preserve">
<rect x="-19.768" y="-18.642" display="none" fill="#330808" width="363" height="148"/>
<g display="none">
	<defs>
		<rect id="SVGID_1_" x="-0.02" y="-0.45" width="298" height="94"/>
	</defs>
	<clipPath id="SVGID_2_" display="inline">
		<use xlink:href="#SVGID_1_"  overflow="visible"/>
	</clipPath>
	<path display="inline" clip-path="url(#SVGID_2_)" fill="#FFFFFF" d="M96.92,33.68c1,0,1.25,0.52,0.93,1.25l-15.58,33.5h13.77
		c0.63,0,1,0.27,1,0.84v5.16c0,0.52-0.37,0.83-1,0.88H71.7c-1,0-1.32-0.5-0.94-1.24L86.34,40.6H73.4c-0.64,0-1-0.3-1-0.83v-5.2
		c0-0.57,0.36-0.83,1-0.9h23.5L96.92,33.68z M108.2,33.68c0.6,0,1,0.32,1,0.84v39.96c0,0.521-0.4,0.83-1,0.83h-6.52
		c-0.7,0-1-0.3-1-0.819V34.52c0-0.52,0.3-0.84,1-0.84h6.5H108.2z"/>
</g>
<g display="none">
	<defs>
		<rect id="SVGID_3_" x="-0.02" y="-0.45" width="298" height="94"/>
	</defs>
	<clipPath id="SVGID_4_" display="inline">
		<use xlink:href="#SVGID_3_"  overflow="visible"/>
	</clipPath>
	<path display="inline" clip-path="url(#SVGID_4_)" fill="#00A1F1" d="M139.23,27.92c0.68,0,1.25,0.54,1.25,1.2v37.66
		c0,5.57-3.13,8.53-9,8.53h-7.02c-5.88,0-9-2.95-9-8.521V29.1c0-0.64,0.55-1.18,1.24-1.18h6c0.7,0,1.26,0.54,1.26,1.2v36
		c0,1.601,0.87,2.371,2.5,2.371h3.26c1.62,0,2.5-0.781,2.5-2.381v-36c0-0.66,0.56-1.2,1.25-1.2h5.76V27.92z M174.65,73.9
		c0.369,0.82,0.06,1.399-0.94,1.399h-6.44c-0.68,0-1.18-0.229-1.43-0.819l-6-14.33l-6.02,14.33c-0.24,0.601-0.74,0.83-1.43,0.83
		h-6.44c-1,0-1.32-0.58-0.94-1.399l9.881-22.761l-9.521-21.8c-0.37-0.82-0.06-1.42,0.94-1.42h6.26c0.699,0,1.199,0.24,1.439,0.83
		l5.82,14.04l5.82-14.05c0.25-0.6,0.75-0.83,1.439-0.83h6.25c1,0,1.32,0.6,0.939,1.43l-9.569,21.8l9.95,22.74L174.65,73.9z"/>
</g>
<g display="none">
	<defs>
		<rect id="SVGID_5_" x="-0.02" y="-0.45" width="298" height="94"/>
	</defs>
	<clipPath id="SVGID_6_" display="inline">
		<use xlink:href="#SVGID_5_"  overflow="visible"/>
	</clipPath>
	<path display="inline" clip-path="url(#SVGID_6_)" fill="#FFFFFF" d="M188.92,68.44h14.9c0.68,0,1,0.301,1,0.83v5.2
		c0,0.579-0.32,0.84-1,0.84h-22.4c-0.641,0-1-0.25-1-0.819V34.52c0-0.52,0.359-0.84,1-0.84h6.5c0.7,0,1,0.32,1,0.84V68.44z
		 M230.7,75.299c-0.56,0-0.87-0.25-1-0.719l-1.75-5.25H216.8l-1.68,5.25c-0.12,0.469-0.431,0.729-1,0.729h-6.7
		c-0.68,0-1-0.3-0.8-0.87L217,34.4c0.13-0.5,0.5-0.72,1.07-0.72h8.699c0.561,0,0.931,0.2,1.061,0.73l10.38,40.03
		c0.14,0.57-0.101,0.88-0.86,0.88h-6.629L230.7,75.299z M222.38,42.8l-4,20.5h8L222.38,42.8z M264.7,50.75
		c0,1.93-1.681,3.38-3.931,3.7v0.1c2.25,0.301,3.94,1.771,3.94,3.701v9.569c0,4.9-3.18,7.5-9.06,7.5H240.63c-0.63,0-1-0.319-1-0.84
		V34.52c0-0.58,0.37-0.84,1-0.84h15.021c5.88,0,9.07,2.6,9.07,7.5v9.57H264.7z M256.4,42.63c0-1.35-0.82-2.08-2.521-2.08h-5.7v10.5
		h5.7c1.63,0,2.5-0.72,2.5-2.02v-6.4H256.4z M256.4,60.01c0-1.34-0.82-2.07-2.521-2.07h-5.7v10.5h5.7c1.63,0,2.5-0.66,2.5-2.07V60
		L256.4,60.01z"/>
</g>
<g>
	<path fill="#14145B" d="M31.688,68.979h21.34l-4.7-13.621h-11.94L31.688,68.979z"/>
</g>
<g>
	
		<path fill="#F6F6F6" stroke="#F6F6F6" stroke-width="2" stroke-linecap="round" stroke-linejoin="round" stroke-miterlimit="10" d="
		M49.15,41.87v-6.6h1.1c1.15,0,2.1-0.9,2.1-2.02c0-1.14-0.95-2.03-2.1-2.03h-16.2c-1.15,0-2.1,0.9-2.1,2.03s0.95,2.02,2.1,2.02h1.3
		v6.6L25,71v0.1c0,1.1,0.73,1.97,1.5,2.55c0.76,0.601,1.86,0.841,2.9,0.841h25.5c1.05,0,1.9-0.261,2.67-0.851
		c0.77-0.58,1.24-1.45,1.24-2.54V71l-9.65-29.13H49.15z M28.65,71.1L38.8,41.88v-6.6h6.9v6.6L55.77,71.1H28.65z"/>
</g>
<g>
	<path fill="#14145B" d="M36.85,9.87c-1.6,0-2.9-1.3-2.9-2.88c0-1.58,1.3-2.9,2.9-2.9c1.58,0,2.87,1.3,2.87,2.9
		c0,1.6-1.3,2.87-2.87,2.87 M36.85,5.8c-0.66,0-1.2,0.54-1.2,1.2c0.02,0.64,0.55,1.17,1.2,1.17s1.17-0.53,1.17-1.18
		c0-0.66-0.52-1.2-1.17-1.2 M35.75,26.72c-3.22,0-5.84-2.62-5.84-5.84c0-3.22,2.63-5.84,5.85-5.84c3.22,0,5.84,2.62,5.84,5.84
		C41.6,24.1,38.97,26.72,35.75,26.72 M35.75,17.04c-2.1,0-3.84,1.73-3.84,3.84c0,2.12,1.74,3.84,3.85,3.84
		c2.12,0,3.84-1.72,3.84-3.84C39.6,18.78,37.87,17.04,35.75,17.04 M45.9,17.98c-2.27,0-4.12-1.85-4.12-4.12
		c0-2.28,1.85-4.13,4.12-4.13s4.12,1.85,4.12,4.13C50.02,16.13,48.17,17.98,45.9,17.98 M45.9,11.73c-1.17,0-2.12,0.96-2.12,2.13
		s0.95,2.12,2.12,2.12s2.12-0.95,2.12-2.12S47.07,11.73,45.9,11.73"/>
</g>
</svg>
